HIERARCHY
ROOT hip
{
  OFFSET 0 0 0
  CHANNELS 6 Xposition Yposition Zposition Zrotation Yrotation Xrotation
  JOINT abdomen
  {
    OFFSET 0 20.6881 -0.73152
    CHANNELS 3 Zrotation Xrotation Yrotation
    JOINT chest
    {
      OFFSET 0 11.7043 -0.48768
      CHANNELS 3 Zrotation Xrotation Yrotation
      JOINT neck
      {
        OFFSET 0 22.1894 -2.19456
        CHANNELS 3 Zrotation Xrotation Yrotation
        JOINT head
        {
          OFFSET -0.24384 7.07133 1.2192
          CHANNELS 3 Zrotation Xrotation Yrotation
          JOINT leftEye
          {
            OFFSET 4.14528 8.04674 8.04672
            CHANNELS 3 Zrotation Xrotation Yrotation
            End Site
            {
              OFFSET 1 0 0
            }
          }
          JOINT rightEye
          {
            OFFSET -3.6576 8.04674 8.04672
            CHANNELS 3 Zrotation Xrotation Yrotation
            End Site
            {
              OFFSET 1 0 0
            }
          }
        }
      }
      JOINT rCollar
      {
        OFFSET -2.68224 19.2634 -4.8768
        CHANNELS 3 Zrotation Xrotation Yrotation
        JOINT rShldr
        {
          OFFSET -8.77824 -1.95073 1.46304
          CHANNELS 3 Zrotation Xrotation Yrotation
          JOINT rForeArm
          {
            OFFSET -28.1742 -1.7115 0.48768
            CHANNELS 3 Zrotation Xrotation Yrotation
            JOINT rHand
            {
              OFFSET -22.5879 0.773209 7.07136
              CHANNELS 3 Zrotation Xrotation Yrotation
              JOINT rThumb1
              {
                OFFSET -1.2192 -0.487915 3.41376
                CHANNELS 3 Zrotation Xrotation Yrotation
                JOINT rThumb2
                {
                  OFFSET -3.37035 -0.52449 3.41376
                  CHANNELS 3 Zrotation Xrotation Yrotation
                  End Site
                  {
                    OFFSET -1.78271 -1.18214 1.43049
                  }
                }
              }
              JOINT rIndex1
              {
                OFFSET -7.75947 0.938293 5.60832
                CHANNELS 3 Zrotation Xrotation Yrotation
                JOINT rIndex2
                {
                  OFFSET -2.54057 -0.884171 1.56538
                  CHANNELS 3 Zrotation Xrotation Yrotation
                  End Site
                  {
                    OFFSET -1.62519 -0.234802 1.16502
                  }
                }
              }
              JOINT rMid1
              {
                OFFSET -8.24714 1.18213 3.41376
                CHANNELS 3 Zrotation Xrotation Yrotation
                JOINT rMid2
                {
                  OFFSET -3.10165 -0.590103 1.0647
                  CHANNELS 3 Zrotation Xrotation Yrotation
                  End Site
                  {
                    OFFSET -2.48547 -0.328903 0.83742
                  }
                }
              }
              JOINT rRing1
              {
                OFFSET -8.82822 0.546677 1.51678
                CHANNELS 3 Zrotation Xrotation Yrotation
                JOINT rRing2
                {
                  OFFSET -2.60934 -0.819778 -0.0198488
                  CHANNELS 3 Zrotation Xrotation Yrotation
                  End Site
                  {
                    OFFSET -2.33842 -0.294052 0.168128
                  }
                }
              }
              JOINT rPinky1
              {
                OFFSET -8.27202 -0.0477905 -0.4584
                CHANNELS 3 Zrotation Xrotation Yrotation
                JOINT rPinky2
                {
                  OFFSET -1.82734 -0.647385 -0.700984
                  CHANNELS 3 Zrotation Xrotation Yrotation
                  End Site
                  {
                    OFFSET -1.69225 -0.51767 -0.607171
                  }
                }
              }
            }
          }
        }
      }
      JOINT lCollar
      {
        OFFSET 2.68224 19.2634 -4.8768
        CHANNELS 3 Zrotation Xrotation Yrotation
        JOINT lShldr
        {
          OFFSET 8.77824 -1.95073 1.46304
          CHANNELS 3 Zrotation Xrotation Yrotation
          JOINT lForeArm
          {
            OFFSET 28.1742 -1.7115 0.48768
            CHANNELS 3 Zrotation Xrotation Yrotation
            JOINT lHand
            {
              OFFSET 22.5879 0.773209 7.07136
              CHANNELS 3 Zrotation Xrotation Yrotation
              JOINT lThumb1
              {
                OFFSET 1.2192 -0.487915 3.41376
                CHANNELS 3 Zrotation Xrotation Yrotation
                JOINT lThumb2
                {
                  OFFSET 3.37035 -0.52449 3.41376
                  CHANNELS 3 Zrotation Xrotation Yrotation
                  End Site
                  {
                    OFFSET 1.78271 -1.18214 1.43049
                  }
                }
              }
              JOINT lIndex1
              {
                OFFSET 7.75947 0.938293 5.60832
                CHANNELS 3 Zrotation Xrotation Yrotation
                JOINT lIndex2
                {
                  OFFSET 2.54057 -0.884171 1.56538
                  CHANNELS 3 Zrotation Xrotation Yrotation
                  End Site
                  {
                    OFFSET 1.62519 -0.234802 1.16502
                  }
                }
              }
              JOINT lMid1
              {
                OFFSET 8.24714 1.18213 3.41376
                CHANNELS 3 Zrotation Xrotation Yrotation
                JOINT lMid2
                {
                  OFFSET 3.10165 -0.590103 1.0647
                  CHANNELS 3 Zrotation Xrotation Yrotation
                  End Site
                  {
                    OFFSET 2.48547 -0.328903 0.83742
                  }
                }
              }
              JOINT lRing1
              {
                OFFSET 8.82822 0.546677 1.51678
                CHANNELS 3 Zrotation Xrotation Yrotation
                JOINT lRing2
                {
                  OFFSET 2.60934 -0.819778 -0.0198488
                  CHANNELS 3 Zrotation Xrotation Yrotation
                  End Site
                  {
                    OFFSET 2.33842 -0.294052 0.168128
                  }
                }
              }
              JOINT lPinky1
              {
                OFFSET 8.27202 -0.0477905 -0.4584
                CHANNELS 3 Zrotation Xrotation Yrotation
                JOINT lPinky2
                {
                  OFFSET 1.82734 -0.647385 -0.700984
                  CHANNELS 3 Zrotation Xrotation Yrotation
                  End Site
                  {
                    OFFSET 1.69225 -0.51767 -0.607171
                  }
                }
              }
            }
          }
        }
      }
    }
  }
  JOINT rButtock
  {
    OFFSET -8.77824 4.35084 1.2192
    CHANNELS 3 Zrotation Xrotation Yrotation
    JOINT rThigh
    {
      OFFSET 0 -1.70687 -2.19456
      CHANNELS 3 Zrotation Xrotation Yrotation
      JOINT rShin
      {
        OFFSET 0 -36.8199 0.73152
        CHANNELS 3 Zrotation Xrotation Yrotation
        JOINT rFoot
        {
          OFFSET 0.73152 -45.1104 -5.12064
          CHANNELS 3 Zrotation Xrotation Yrotation
          End Site
          {
            OFFSET -1.1221 -3.69964 12.103
          }
        }
      }
    }
  }
  JOINT lButtock
  {
    OFFSET 8.77824 4.35084 1.2192
    CHANNELS 3 Zrotation Xrotation Yrotation
    JOINT lThigh
    {
      OFFSET 0 -1.70687 -2.19456
      CHANNELS 3 Zrotation Xrotation Yrotation
      JOINT lShin
      {
        OFFSET 0 -36.8199 0.73152
        CHANNELS 3 Zrotation Xrotation Yrotation
        JOINT lFoot
        {
          OFFSET -0.73152 -45.1104 -5.12064
          CHANNELS 3 Zrotation Xrotation Yrotation
          End Site
          {
            OFFSET 1.1221 -3.69964 12.103
          }
        }
      }
    }
  }
}
MOTION
Frames:	7
Frame Time:	0.00833333
29.9112 54.0166 89.4947 181.393 13.2094 -519.87 5.71156 -23.583 1.78689 0.338564 1.54962 0.867349 5.0849 -1.40804 0.512755 -8.47104 26.6194 8.54715 -0.0 0.0 0.0 -0.0 0.0 0.0 -9.04761e-14 -1.25637e-13 1.1614e-13 68.6891 0.697876 -12.0044 -14.3515 -7.24167 26.2641 -0.0160539 -3.61493 -0.508727 8.27696e-10 1.54543e-09 -1.52737e-10 1.42556e-09 2.6767e-09 -2.62504e-10 8.27697e-10 1.54543e-09 -1.52743e-10 7.73091 5.47488 0.417314 8.27696e-10 1.54542e-09 -1.5274e-10 2.90554 0.965183 0.102902 8.27704e-10 1.54542e-09 -1.52742e-10 10.2786 0.731801 0.0259123 8.27693e-10 1.54542e-09 -1.5274e-10 2.22167 -0.733487 -0.20892 -9.06227e-14 -1.25628e-13 1.15991e-13 -84.8209 31.3588 12.3925 12.2939 -5.65687 -22.1802 2.03127 -36.9659 6.07177 2.75642e-09 1.79032e-09 -5.854e-10 4.7739e-09 3.09557e-09 -9.3254e-10 2.75642e-09 1.79032e-09 -5.85394e-10 -7.73091 5.47488 -0.417314 2.75642e-09 1.79032e-09 -5.85403e-10 -2.90554 0.965183 -0.102902 2.75641e-09 1.79032e-09 -5.85404e-10 -10.2786 0.731801 -0.0259123 2.75642e-09 1.79032e-09 -5.85407e-10 -2.22167 -0.733487 0.20892 -2.03217e-16 0.0 -3.88251e-19 7.93586 -43.8133 19.8345 -0.165285 32.9106 1.22289 -1.50958 -5.39401 -10.4088 2.03217e-16 0.0 3.88251e-19 -2.09836 -20.5084 -3.99822 -0.155667 25.3187 -0.975542 2.81789 -8.99995 22.7099
29.9967 54.0051 89.363 181.398 13.1552 -520.044 6.59939 -23.2347 1.9225 0.261113 1.47375 0.865546 5.15431 -1.4113 0.58188 -8.82828 26.5744 8.73205 -0.0 0.0 0.0 -0.0 0.0 0.0 -5.04285e-14 -1.5337e-13 1.22495e-13 68.437 0.57153 -11.8284 -14.3536 -7.2433 26.2684 -0.0168455 -3.69962 -0.520681 5.50489e-10 1.52741e-09 7.20072e-11 9.46544e-10 2.64619e-09 1.25577e-10 5.5049e-10 1.52741e-09 7.19996e-11 7.73091 5.47488 0.417314 5.50489e-10 1.52741e-09 7.20043e-11 2.90554 0.965183 0.102902 5.50497e-10 1.52741e-09 7.2003e-11 10.2786 0.731801 0.0259123 5.50484e-10 1.5274e-09 7.2006e-11 2.22167 -0.733487 -0.20892 -5.0542e-14 -1.53362e-13 1.22353e-13 -84.8021 31.6743 12.4994 12.4011 -5.73405 -22.3887 1.99947 -36.7243 6.01857 2.28365e-09 1.48917e-09 -3.92155e-10 3.95268e-09 2.5743e-09 -6.11513e-10 2.28365e-09 1.48917e-09 -3.9215e-10 -7.73091 5.47488 -0.417314 2.28365e-09 1.48917e-09 -3.92159e-10 -2.90554 0.965183 -0.102902 2.28364e-09 1.48917e-09 -3.92159e-10 -10.2786 0.731801 -0.0259123 2.28366e-09 1.48917e-09 -3.9216e-10 -2.22167 -0.733487 0.20892 -2.03217e-16 0.0 -3.88251e-19 8.01787 -43.5476 19.668 -0.166931 32.9158 1.20607 -1.51327 -5.53402 -10.304 2.03217e-16 0.0 3.88251e-19 -1.90661 -20.6199 -3.88402 -0.150468 26.4729 -0.985544 2.80537 -8.98203 22.5886
30.0766 53.9956 89.231 181.382 13.089 -520.236 7.45391 -22.8538 2.02747 0.183859 1.39299 0.858302 5.22453 -1.40697 0.650409 -9.1852 26.5301 8.91901 -0.0 0.0 0.0 -0.0 0.0 0.0 6.90992e-15 -1.42954e-13 1.16131e-13 68.1794 0.453278 -11.6329 -14.3451 -7.23618 26.2512 -0.0173665 -3.75675 -0.528744 -6.81788e-13 1.47573e-09 1.6232e-10 -5.39263e-12 2.55696e-09 2.80718e-10 -6.80511e-13 1.47573e-09 1.6231e-10 7.73091 5.47488 0.417314 -6.80761e-13 1.47572e-09 1.62317e-10 2.90554 0.965183 0.102902 -6.74488e-13 1.47572e-09 1.62318e-10 10.2786 0.731801 0.0259123 -6.89282e-13 1.47572e-09 1.62322e-10 2.22167 -0.733487 -0.20892 6.85635e-15 -1.42949e-13 1.15994e-13 -84.7579 31.9505 12.5967 12.5174 -5.81822 -22.6157 1.97416 -36.5313 5.97618 1.49604e-09 9.98862e-10 1.51973e-10 2.5785e-09 1.71968e-09 3.06452e-10 1.49604e-09 9.98861e-10 1.51976e-10 -7.73091 5.47488 -0.417314 1.49604e-09 9.98862e-10 1.5197e-10 -2.90554 0.965183 -0.102902 1.49603e-09 9.98863e-10 1.51971e-10 -10.2786 0.731801 -0.0259123 1.49604e-09 9.98864e-10 1.51971e-10 -2.22167 -0.733487 0.20892 -2.03217e-16 0.0 -3.88251e-19 8.06208 -43.2577 19.4893 -0.168589 32.9216 1.18945 -1.51829 -5.67575 -10.2194 2.03217e-16 0.0 3.88251e-19 -1.75505 -20.6952 -3.77776 -0.132059 27.6486 -1.0017 2.75704 -8.9231 22.3859
30.1529 53.9877 89.099 181.348 13.015 -520.439 8.28443 -22.4659 2.11511 0.108024 1.30604 0.849397 5.29163 -1.39659 0.716879 -9.53522 26.487 9.10407 -0.0 0.0 0.0 -0.0 0.0 0.0 6.48083e-14 -9.96263e-14 1.05397e-13 67.9195 0.332972 -11.4169 -14.325 -7.21964 26.2106 -0.0177204 -3.79676 -0.53439 -6.24391e-10 1.44145e-09 1.02797e-10 -1.08235e-09 2.49738e-09 1.767e-10 -6.2439e-10 1.44145e-09 1.02785e-10 7.73091 5.47488 0.417314 -6.2439e-10 1.44145e-09 1.02796e-10 2.90554 0.965183 0.102902 -6.24385e-10 1.44145e-09 1.02798e-10 10.2786 0.731801 0.0259123 -6.24402e-10 1.44145e-09 1.02804e-10 2.22167 -0.733487 -0.20892 6.48129e-14 -9.96242e-14 1.0526e-13 -84.6876 32.1825 12.6828 12.6399 -5.90758 -22.8555 1.95525 -36.3865 5.94448 6.83988e-10 5.117e-10 8.3909e-10 1.15852e-09 8.6695e-10 1.47032e-09 6.83986e-10 5.11698e-10 8.3909e-10 -7.73091 5.47488 -0.417314 6.8399e-10 5.11699e-10 8.39086e-10 -2.90554 0.965183 -0.102902 6.83979e-10 5.117e-10 8.39089e-10 -10.2786 0.731801 -0.0259123 6.83993e-10 5.11703e-10 8.39089e-10 -2.22167 -0.733487 0.20892 -2.03217e-16 0.0 -3.88251e-19 8.08316 -42.9764 19.3033 -0.170175 32.9314 1.1733 -1.52247 -5.81714 -10.1395 2.03217e-16 0.0 3.88251e-19 -1.62873 -20.8106 -3.67317 -0.104406 28.9257 -1.02147 2.68093 -8.84764 22.0883
30.225 53.9805 88.971 181.299 12.939 -520.639 9.10008 -22.0967 2.1986 0.0348497 1.21161 0.842613 5.3517 -1.38167 0.779827 -9.87177 26.4459 9.28331 -0.0 0.0 0.0 -0.0 0.0 0.0 1.06536e-13 -2.86246e-14 9.86469e-14 67.6604 0.200429 -11.1791 -14.2927 -7.19303 26.1448 -0.0180256 -3.8301 -0.539097 -1.11921e-09 1.47565e-09 -1.21965e-10 -1.93641e-09 2.55582e-09 -2.12693e-10 -1.11921e-09 1.47564e-09 -1.21977e-10 7.73091 5.47488 0.417314 -1.11921e-09 1.47564e-09 -1.21965e-10 2.90554 0.965183 0.102902 -1.11921e-09 1.47564e-09 -1.21962e-10 10.2786 0.731801 0.0259123 -1.11923e-09 1.47564e-09 -1.21955e-10 2.22167 -0.733487 -0.20892 1.06568e-13 -2.8625e-14 9.84978e-14 -84.59 32.365 12.7563 12.7658 -6.00035 -23.102 1.94274 -36.2897 5.9234 1.37934e-10 2.19988e-10 1.4613e-09 1.99907e-10 3.51337e-10 2.52905e-09 1.37931e-10 2.19984e-10 1.4613e-09 -7.73091 5.47488 -0.417314 1.37936e-10 2.19986e-10 1.4613e-09 -2.90554 0.965183 -0.102902 1.37925e-10 2.19987e-10 1.4613e-09 -10.2786 0.731801 -0.0259123 1.3794e-10 2.19991e-10 1.4613e-09 -2.22167 -0.733487 0.20892 -2.03217e-16 0.0 -3.88251e-19 8.09507 -42.7365 19.1144 -0.171598 32.9486 1.15788 -1.52349 -5.95613 -10.0487 2.03217e-16 0.0 3.88251e-19 -1.51206 -21.0427 -3.56379 -0.0715737 30.3839 -1.04241 2.58485 -8.78004 21.6821
30.2932 53.9721 88.8605 181.235 12.866 -520.82 9.91155 -21.7433 2.28555 -0.0351309 1.10791 0.839979 5.4037 -1.35909 0.839402 -10.1919 26.4041 9.45664 -0.0 0.0 0.0 -0.0 0.0 0.0 1.27594e-13 1.11854e-13 9.45955e-14 67.4025 0.0520707 -10.9151 -14.2445 -7.15351 26.047 -0.0182439 -3.85266 -0.542282 -1.5187e-09 1.67578e-09 -7.82502e-10 -2.62516e-09 2.90029e-09 -1.35523e-09 -1.51871e-09 1.67577e-09 -7.82513e-10 7.73091 5.47488 0.417314 -1.5187e-09 1.67577e-09 -7.825e-10 2.90554 0.965183 0.102902 -1.5187e-09 1.67577e-09 -7.82498e-10 10.2786 0.731801 0.0259123 -1.51872e-09 1.67577e-09 -7.82491e-10 2.22167 -0.733487 -0.20892 1.27606e-13 1.11853e-13 9.44103e-14 -84.4605 32.4955 12.8143 12.8941 -6.09585 -23.3542 1.93712 -36.2454 5.91382 3.38036e-12 2.65171e-10 2.15058e-09 -4.904e-11 4.12781e-10 3.71412e-09 3.37702e-12 2.65167e-10 2.15058e-09 -7.73091 5.47488 -0.417314 3.38168e-12 2.65168e-10 2.15057e-09 -2.90554 0.965183 -0.102902 3.37166e-12 2.6517e-10 2.15058e-09 -10.2786 0.731801 -0.0259123 3.38567e-12 2.65174e-10 2.15058e-09 -2.22167 -0.733487 0.20892 -2.03217e-16 0.0 -3.88251e-19 8.10946 -42.5442 18.9296 -0.172821 32.9757 1.14282 -1.5199 -6.09044 -9.94101 2.03217e-16 0.0 3.88251e-19 -1.39717 -21.4052 -3.43845 -0.0319598 32.0443 -1.06475 2.46987 -8.73161 21.1703
30.3566 53.9629 88.7591 181.155 12.7965 -520.972 10.7115 -21.3953 2.36767 -0.102636 0.996101 0.839141 5.44968 -1.32921 0.896204 -10.4996 26.3623 9.62584 -0.0 0.0 0.0 -0.0 0.0 0.0 1.36919e-13 3.10204e-13 8.99594e-14 67.1448 -0.106478 -10.6267 -14.1819 -7.10219 25.9205 -0.0183254 -3.86116 -0.543483 -1.9012e-09 1.98666e-09 -1.78179e-09 -3.28403e-09 3.43552e-09 -3.08334e-09 -1.9012e-09 1.98666e-09 -1.7818e-09 7.73091 5.47488 0.417314 -1.9012e-09 1.98666e-09 -1.78179e-09 2.90554 0.965183 0.102902 -1.9012e-09 1.98666e-09 -1.78179e-09 10.2786 0.731801 0.0259123 -1.90121e-09 1.98666e-09 -1.78178e-09 2.22167 -0.733487 -0.20892 1.36879e-13 3.10203e-13 8.97202e-14 -84.3004 32.5772 12.8578 13.0264 -6.19498 -23.615 1.93803 -36.2523 5.91532 1.02747e-10 5.14633e-10 2.95533e-09 1.0351e-10 8.22311e-10 5.10439e-09 1.02744e-10 5.1463e-10 2.95533e-09 -7.73091 5.47488 -0.417314 1.02748e-10 5.14629e-10 2.95533e-09 -2.90554 0.965183 -0.102902 1.02739e-10 5.1463e-10 2.95533e-09 -10.2786 0.731801 -0.0259123 1.02752e-10 5.14633e-10 2.95532e-09 -2.22167 -0.733487 0.20892 -2.03217e-16 0.0 -3.88251e-19 8.11558 -42.3829 18.7439 -0.173885 33.0102 1.12812 -1.51314 -6.22173 -9.82521 2.03217e-16 0.0 3.88251e-19 -1.29225 -21.8598 -3.30339 0.0164714 33.8645 -1.09039 2.33275 -8.6868 20.5581
